# xmcd CD database file
#
# Track frame offsets:
#	150
#	16477
#	38800
#	56670
#	75120
#	98590
#	119190
#	137172
#	157145
#	167842
#	187392
#
# Disc length: 2804 seconds
#
# Revision: 3
# Processed by: cddbd v1.5.1PL0 Copyright (c) Steve Scherf et al.
# Submitted via: CDex 1.51
#
DISCID=960af20b
DTITLE=??? - LOVE PUNCH
DYEAR=2004
DGENRE=
TTITLE0=Pretty Voice
TTITLE1=?????
TTITLE2=?????
TTITLE3=Girly
TTITLE4=?????????
TTITLE5=?????
TTITLE6=????????
TTITLE7=???????
TTITLE8=???
TTITLE9=????
TTITLE10=Always Together
EXTD=YEAR: 2004
EXTT0=
EXTT1=
EXTT2=
EXTT3=
EXTT4=
EXTT5=
EXTT6=
EXTT7=
EXTT8=
EXTT9=
EXTT10=
PLAYORDER=
